<svg xmlns="http://www.w3.org/2000/svg" width="78" height="32" fill="none"><path fill="#fff" fill-rule="evenodd" d="M74.98 2.142H2.141v24.502H74.98V2.142ZM0 0v28.787h77.121V0H0Z" clip-rule="evenodd"/><path fill="#fff" d="M6.025 19.28V8.033h11.247V9.64H9.238v3.214h6.427v1.606H9.238v3.214h8.034v1.606H6.025ZM18.879 19.28V8.033h9.64V9.64h1.607v4.82h-1.607v1.607h-6.427v3.213H18.88Zm3.213-4.82h4.82V9.64h-4.82v4.82ZM33.339 19.28V8.033h3.213v9.64h6.427v1.607h-9.64ZM44.586 19.28v-8.033h1.607V9.64h1.606V8.033h4.82V9.64h1.607v1.607h1.607v8.033h-3.214v-3.213H47.8v3.213h-3.213Zm3.213-4.82h4.82v-3.213h-1.606V9.64h-1.607v1.607h-1.607v3.213ZM62.26 19.28v-4.82h-1.607v-1.606h-1.607v-4.82h3.213v4.82h3.214v-4.82h3.213v4.82H67.08v1.606h-1.606v4.82h-3.214ZM0 28.787h77.121V32H0v-3.213Z"/></svg>